<mxfile host="app.diagrams.net" modified="2024-06-04T04:27:43.744Z" agent="Mozilla/5.0 (Windows NT 10.0; Win64; x64) AppleWebKit/537.36 (KHTML, like Gecko) Chrome/124.0.0.0 Safari/537.36" etag="FYwHbE_mEfqRvf6qT1T6" version="24.0.1" type="device">
  <diagram name="Page-1" id="F5JNJu0a8W4pLTUVCudN">
    <mxGraphModel dx="794" dy="492" grid="0" gridSize="10" guides="1" tooltips="1" connect="1" arrows="1" fold="1" page="1" pageScale="1" pageWidth="850" pageHeight="1400" math="0" shadow="0">
      <root>
        <mxCell id="0" />
        <mxCell id="1" parent="0" />
        <mxCell id="QUf2zT0xTb3gtNiivZ-r-4" value="Business Understanding" style="rounded=1;whiteSpace=wrap;html=1;fillColor=#dae8fc;strokeColor=#6c8ebf;" vertex="1" parent="1">
          <mxGeometry x="152" y="108" width="158" height="42" as="geometry" />
        </mxCell>
        <mxCell id="QUf2zT0xTb3gtNiivZ-r-5" value="Data Understanding" style="rounded=1;whiteSpace=wrap;html=1;fillColor=#dae8fc;strokeColor=#6c8ebf;" vertex="1" parent="1">
          <mxGeometry x="383" y="106.5" width="157" height="43.5" as="geometry" />
        </mxCell>
        <mxCell id="QUf2zT0xTb3gtNiivZ-r-6" value="Data Preparation" style="rounded=1;whiteSpace=wrap;html=1;fillColor=#dae8fc;strokeColor=#6c8ebf;" vertex="1" parent="1">
          <mxGeometry x="470" y="190" width="155" height="40" as="geometry" />
        </mxCell>
        <mxCell id="QUf2zT0xTb3gtNiivZ-r-7" value="Modeling" style="rounded=1;whiteSpace=wrap;html=1;fillColor=#dae8fc;strokeColor=#6c8ebf;" vertex="1" parent="1">
          <mxGeometry x="490" y="275" width="167" height="40" as="geometry" />
        </mxCell>
        <mxCell id="QUf2zT0xTb3gtNiivZ-r-9" value="Deployment" style="rounded=1;whiteSpace=wrap;html=1;fillColor=#dae8fc;strokeColor=#6c8ebf;" vertex="1" parent="1">
          <mxGeometry x="62" y="216" width="185" height="42" as="geometry" />
        </mxCell>
        <mxCell id="QUf2zT0xTb3gtNiivZ-r-10" value="Evaluation" style="rounded=1;whiteSpace=wrap;html=1;fillColor=#dae8fc;strokeColor=#6c8ebf;" vertex="1" parent="1">
          <mxGeometry x="280" y="355" width="171" height="49" as="geometry" />
        </mxCell>
        <mxCell id="QUf2zT0xTb3gtNiivZ-r-11" value="" style="shape=cylinder3;whiteSpace=wrap;html=1;boundedLbl=1;backgroundOutline=1;size=9.66668701171875;" vertex="1" parent="1">
          <mxGeometry x="338" y="193" width="60" height="80" as="geometry" />
        </mxCell>
        <mxCell id="QUf2zT0xTb3gtNiivZ-r-17" value="" style="endArrow=classic;html=1;rounded=0;" edge="1" parent="1">
          <mxGeometry width="50" height="50" relative="1" as="geometry">
            <mxPoint x="313" y="122" as="sourcePoint" />
            <mxPoint x="381" y="122" as="targetPoint" />
            <Array as="points" />
          </mxGeometry>
        </mxCell>
        <mxCell id="QUf2zT0xTb3gtNiivZ-r-18" value="" style="endArrow=classic;html=1;rounded=0;entryX=1;entryY=0.75;entryDx=0;entryDy=0;" edge="1" parent="1" target="QUf2zT0xTb3gtNiivZ-r-4">
          <mxGeometry width="50" height="50" relative="1" as="geometry">
            <mxPoint x="377" y="140" as="sourcePoint" />
            <mxPoint x="391" y="132" as="targetPoint" />
            <Array as="points" />
          </mxGeometry>
        </mxCell>
        <mxCell id="QUf2zT0xTb3gtNiivZ-r-20" value="" style="endArrow=classic;html=1;rounded=0;" edge="1" parent="1">
          <mxGeometry width="50" height="50" relative="1" as="geometry">
            <mxPoint x="504" y="161" as="sourcePoint" />
            <mxPoint x="539" y="185" as="targetPoint" />
          </mxGeometry>
        </mxCell>
        <mxCell id="QUf2zT0xTb3gtNiivZ-r-21" value="" style="endArrow=classic;html=1;rounded=0;entryX=0.535;entryY=-0.242;entryDx=0;entryDy=0;entryPerimeter=0;" edge="1" parent="1" target="QUf2zT0xTb3gtNiivZ-r-7">
          <mxGeometry width="50" height="50" relative="1" as="geometry">
            <mxPoint x="577" y="236" as="sourcePoint" />
            <mxPoint x="620" y="254" as="targetPoint" />
          </mxGeometry>
        </mxCell>
        <mxCell id="QUf2zT0xTb3gtNiivZ-r-23" value="" style="endArrow=classic;html=1;rounded=0;" edge="1" parent="1">
          <mxGeometry width="50" height="50" relative="1" as="geometry">
            <mxPoint x="555" y="269" as="sourcePoint" />
            <mxPoint x="552" y="239" as="targetPoint" />
          </mxGeometry>
        </mxCell>
        <mxCell id="QUf2zT0xTb3gtNiivZ-r-24" value="" style="endArrow=classic;html=1;rounded=0;entryX=1.045;entryY=0.429;entryDx=0;entryDy=0;entryPerimeter=0;exitX=0.347;exitY=1.158;exitDx=0;exitDy=0;exitPerimeter=0;" edge="1" parent="1" source="QUf2zT0xTb3gtNiivZ-r-7" target="QUf2zT0xTb3gtNiivZ-r-10">
          <mxGeometry width="50" height="50" relative="1" as="geometry">
            <mxPoint x="581" y="328" as="sourcePoint" />
            <mxPoint x="472" y="342" as="targetPoint" />
          </mxGeometry>
        </mxCell>
        <mxCell id="QUf2zT0xTb3gtNiivZ-r-25" value="" style="endArrow=classic;html=1;rounded=0;" edge="1" parent="1">
          <mxGeometry width="50" height="50" relative="1" as="geometry">
            <mxPoint x="275" y="379" as="sourcePoint" />
            <mxPoint x="175" y="261" as="targetPoint" />
          </mxGeometry>
        </mxCell>
        <mxCell id="QUf2zT0xTb3gtNiivZ-r-26" value="" style="endArrow=classic;html=1;rounded=0;entryX=0.907;entryY=0.952;entryDx=0;entryDy=0;entryPerimeter=0;" edge="1" parent="1">
          <mxGeometry width="50" height="50" relative="1" as="geometry">
            <mxPoint x="368.69" y="354.02" as="sourcePoint" />
            <mxPoint x="273.99600000000004" y="150.00400000000005" as="targetPoint" />
          </mxGeometry>
        </mxCell>
        <mxCell id="QUf2zT0xTb3gtNiivZ-r-27" value="Data" style="text;html=1;align=center;verticalAlign=middle;whiteSpace=wrap;rounded=0;" vertex="1" parent="1">
          <mxGeometry x="351" y="280" width="60" height="30" as="geometry" />
        </mxCell>
        <mxCell id="QUf2zT0xTb3gtNiivZ-r-28" value="CRISP - DM Diagram" style="text;html=1;align=center;verticalAlign=middle;whiteSpace=wrap;rounded=0;" vertex="1" parent="1">
          <mxGeometry x="226" y="49" width="246" height="30" as="geometry" />
        </mxCell>
      </root>
    </mxGraphModel>
  </diagram>
</mxfile>
